<?xml version="1.0" standalone="no"?>
<!DOCTYPE svg PUBLIC "-//W3C//DTD SVG 20010904//EN"
 "http://www.w3.org/TR/2001/REC-SVG-20010904/DTD/svg10.dtd">
<svg version="1.0" xmlns="http://www.w3.org/2000/svg"
 width="612.000000pt" height="612.000000pt" viewBox="0 0 612.000000 612.000000"
 preserveAspectRatio="xMidYMid meet">
<metadata>
Created by potrace 1.14, written by Peter Selinger 2001-2017
</metadata>
<g transform="translate(0.000000,612.000000) scale(0.100000,-0.100000)"
fill="#000000" stroke="none">
<path d="M2223 4609 c-27 -10 -46 -44 -38 -69 3 -10 1 -21 -4 -25 -6 -3 13
-30 44 -60 80 -78 101 -132 110 -282 4 -58 2 -73 -9 -73 -8 0 -16 5 -18 11 -2
5 -11 7 -21 3 -10 -3 -16 -13 -13 -20 3 -7 1 -16 -4 -19 -6 -4 -10 5 -10 19 0
16 -6 26 -15 26 -8 0 -20 9 -27 19 -9 15 -19 18 -40 14 -15 -3 -34 -1 -40 5
-18 13 -58 -3 -58 -24 0 -10 -5 -14 -15 -10 -11 4 -27 -11 -53 -52 -44 -69
-63 -111 -138 -302 -31 -79 -79 -192 -107 -250 -27 -58 -51 -109 -51 -115 -1
-5 -12 -32 -25 -59 -22 -47 -49 -118 -51 -134 -1 -4 -23 -77 -50 -162 -69
-217 -118 -416 -116 -470 1 -41 7 -52 52 -98 40 -40 58 -52 82 -52 17 0 37 -6
44 -14 9 -10 20 -11 37 -4 17 6 27 5 33 -4 7 -10 11 -10 14 -1 4 8 15 9 37 2
41 -12 50 -11 42 1 -4 7 3 8 22 3 15 -4 46 -7 67 -7 l40 -1 -1 68 c-1 38 6 96
16 130 19 69 11 66 117 46 58 -12 62 -11 107 15 40 24 48 26 53 12 5 -14 10
-13 45 4 37 19 39 19 39 2 0 -10 9 -35 20 -56 10 -22 17 -43 14 -47 -3 -5 3
-9 13 -10 10 0 13 -3 6 -5 -15 -7 -6 -57 18 -109 26 -56 104 -135 133 -135 14
0 32 -12 47 -32 16 -22 34 -34 54 -36 24 -3 28 -1 18 9 -7 7 -13 23 -13 35 0
13 -4 26 -10 29 -5 3 -10 -1 -10 -9 0 -25 -19 -19 -30 9 -9 24 -37 32 -86 26
-18 -2 -24 47 -7 53 21 8 23 8 23 -9 0 -18 1 -18 34 -5 23 8 28 6 41 -20 18
-35 36 -40 27 -7 -5 19 -3 20 10 9 14 -11 18 -11 25 2 5 9 31 17 68 21 33 3
62 9 65 11 8 9 -50 55 -61 49 -5 -4 -9 -1 -9 4 0 6 7 11 15 11 9 0 15 10 15
26 0 25 0 25 -35 -11 -21 -23 -39 -34 -47 -29 -9 6 -9 9 2 12 23 7 60 44 54
53 -3 5 4 9 15 9 12 0 21 6 21 13 0 8 -19 13 -57 15 -31 1 -59 5 -62 8 -12 12
25 22 66 18 38 -4 43 -2 43 16 0 22 10 26 27 9 6 -6 16 -8 22 -4 16 9 3 25
-15 18 -10 -4 -17 2 -21 16 -7 27 -21 27 -25 -1 -4 -31 -83 -46 -110 -21 -13
12 -18 13 -18 3 0 -7 -3 -10 -7 -7 -3 4 -7 43 -7 87 -1 58 2 80 12 80 14 0 16
46 2 55 -5 3 -10 1 -10 -4 0 -6 -6 -11 -14 -11 -10 0 -4 21 22 71 27 54 32 73
22 79 -7 4 -9 13 -6 19 4 6 3 11 -2 11 -5 0 -9 7 -9 15 0 9 6 14 14 11 7 -3
13 1 13 10 0 13 -8 14 -39 9 -23 -4 -42 -2 -45 4 -7 11 29 25 43 17 5 -3 11 5
13 19 4 20 1 25 -14 25 -11 0 -17 -4 -13 -9 3 -5 1 -12 -4 -15 -5 -3 -11 3
-14 14 -3 11 -1 23 4 26 14 8 11 44 -5 44 -14 0 -11 45 6 66 11 15 0 44 -18
44 -13 0 -19 -13 -15 -34 1 -5 -3 -31 -9 -58 -9 -37 -9 -52 0 -63 10 -12 10
-28 0 -92 0 -2 -9 -3 -20 -3 -13 0 -20 7 -20 19 0 11 -5 23 -12 27 -7 5 -9 0
-6 -14 4 -15 0 -22 -15 -26 -28 -7 -31 -3 -33 52 -3 86 -4 90 -15 62 -6 -13
-7 -41 -4 -61 4 -22 2 -40 -4 -44 -6 -3 -11 -3 -12 2 -2 29 -10 81 -14 100 -3
12 -1 25 5 28 15 9 12 41 -5 55 -13 11 -13 14 0 27 11 10 12 19 5 33 -7 13 -6
20 3 24 9 5 9 7 0 12 -10 4 -9 11 2 28 8 12 12 26 8 31 -5 4 -1 6 7 3 8 -3 14
-15 14 -27 -3 -42 21 -14 24 30 4 49 20 89 22 54 0 -11 2 -37 4 -57 2 -20 -2
-45 -9 -54 -15 -21 -8 -54 11 -54 23 0 15 -24 -12 -37 -25 -12 -25 -11 -22 24
2 23 -2 38 -10 41 -12 4 -14 -10 -14 -88 0 -45 1 -47 17 -26 8 11 16 14 16 8
3 -26 4 -31 10 -37 9 -8 20 55 12 69 -4 6 1 5 10 -3 12 -10 14 -18 7 -31 -14
-26 -12 -52 2 -48 20 7 29 57 34 197 4 104 2 136 -8 142 -10 7 -9 9 5 9 10 0
17 8 17 20 0 11 6 20 13 20 24 0 28 -13 12 -37 -14 -22 -14 -23 5 -23 12 0 18
4 15 10 -3 5 3 31 14 56 24 54 27 77 6 50 -15 -19 -15 -19 -40 4 -16 15 -21
26 -15 30 6 4 10 11 8 16 -1 5 4 20 11 33 8 14 9 26 4 30 -11 7 -11 51 0 69 5
7 4 12 -3 12 -7 0 -8 6 -1 18 6 10 8 28 4 40 -4 17 -1 20 16 15 12 -3 21 -1
21 6 0 6 -4 12 -10 12 -5 1 -14 3 -20 4 -5 1 -13 3 -17 4 -5 1 0 6 10 12 21
12 23 49 2 49 -9 0 -15 9 -14 23 0 12 3 16 6 10 2 -7 9 -13 14 -13 6 0 8 40 6
100 -3 55 -1 103 3 105 12 8 18 -17 10 -45 -9 -35 -7 -53 7 -57 16 -6 11 106
-5 116 -10 6 -24 131 -15 131 5 0 34 -69 39 -94 3 -12 7 -47 9 -78 2 -32 8
-65 13 -74 16 -30 36 19 24 59 -6 18 -10 39 -11 47 0 8 -5 35 -10 60 -6 25
-10 56 -11 69 0 20 2 21 15 11 8 -7 15 -21 15 -31 0 -11 5 -19 11 -19 22 0 -2
72 -40 124 -84 113 -170 176 -221 163 -10 -3 -21 1 -24 8 -2 7 -22 16 -44 20
-21 3 -50 12 -64 19 -14 8 -33 10 -45 5z m385 -231 c12 -21 19 -38 17 -38 -7
0 -45 63 -45 74 0 12 1 10 28 -36z m-94 -4 c3 -8 2 -12 -4 -9 -6 3 -10 10 -10
16 0 14 7 11 14 -7z m44 -189 c-3 -3 -9 2 -12 12 -6 14 -5 15 5 6 7 -7 10 -15
7 -18z m-124 -300 c3 -9 0 -15 -9 -15 -9 0 -12 6 -9 15 4 8 7 15 9 15 2 0 5
-7 9 -15z m46 5 c0 -5 -2 -10 -4 -10 -3 0 -8 5 -11 10 -3 6 -1 10 4 10 6 0 11
-4 11 -10z m16 -48 c-1 -25 -3 -27 -18 -18 -21 13 -23 32 -5 39 22 9 24 7 23
-21z m54 -12 c0 -5 -2 -10 -4 -10 -3 0 -8 5 -11 10 -3 6 -1 10 4 10 6 0 11 -4
11 -10z m-41 -86 c-5 -6 -8 -26 -7 -44 2 -21 -2 -35 -11 -38 -10 -3 -12 3 -7
27 3 17 9 45 12 62 4 22 9 28 15 18 4 -7 4 -18 -2 -25z m-90 -44 c-1 -39 1
-73 4 -76 8 -8 -8 -59 -19 -56 -5 1 -9 5 -9 10 0 4 -4 12 -8 19 -4 7 -1 40 8
73 9 33 13 65 10 70 -6 10 2 30 11 30 3 0 4 -32 3 -70z m49 35 c-3 -28 -11
-24 -13 5 -1 11 2 20 7 20 4 0 7 -11 6 -25z m-207 -22 c-8 -15 -10 -15 -11 -2
0 17 10 32 18 25 2 -3 -1 -13 -7 -23z m37 0 c-2 -5 -10 -21 -17 -38 -7 -16
-17 -38 -22 -47 -5 -10 -5 -19 1 -23 11 -7 40 46 40 74 0 11 5 23 11 27 11 6
8 -81 -6 -201 -14 -122 -17 -174 -21 -315 -4 -170 -7 -195 -20 -195 -5 0 -16
-5 -24 -10 -8 -5 -22 -11 -31 -12 -8 -1 -59 -20 -113 -41 -53 -22 -95 -35 -93
-29 2 6 11 11 21 13 27 4 35 15 42 59 3 22 19 78 36 125 96 272 166 485 162
490 -3 3 -13 -4 -21 -15 -15 -20 -15 -20 -10 2 8 33 -11 39 -23 7 -6 -15 -13
-24 -17 -21 -8 9 39 107 49 101 5 -3 6 -10 3 -15 -4 -5 -4 -9 -1 -9 3 0 12 14
21 30 9 17 13 30 10 30 -4 0 -3 5 0 10 7 11 29 14 23 3z m171 -55 c1 -23 4
-45 7 -50 3 -4 1 -8 -5 -8 -13 0 -20 28 -16 65 5 51 10 49 14 -7z m-252 -130
c-3 -8 -6 -5 -6 6 -1 11 2 17 5 13 3 -3 4 -12 1 -19z m188 -45 c-3 -62 -3 -60
-19 -66 -10 -4 -13 0 -10 14 2 10 6 28 8 39 3 11 0 22 -5 26 -6 4 -6 11 2 20
20 24 26 16 24 -33z m-222 -48 c-3 -9 -8 -14 -10 -11 -3 3 -2 9 2 15 9 16 15
13 8 -4z m-56 -77 c-3 -8 -6 -5 -6 6 -1 11 2 17 5 13 3 -3 4 -12 1 -19z m343
-34 c0 -8 -5 -12 -10 -9 -6 4 -8 11 -5 16 9 14 15 11 15 -7z m-347 -34 c-7 -8
-22 24 -16 34 4 5 10 1 13 -10 4 -10 6 -21 3 -24z m-7 -67 c-11 -11 -19 6 -11
24 8 17 8 17 12 0 3 -10 2 -21 -1 -24z m-26 17 c0 -5 -4 -10 -10 -10 -5 0 -10
5 -10 10 0 6 5 10 10 10 6 0 10 -4 10 -10z m-12 -37 c0 -5 2 -16 7 -26 4 -10
3 -28 -4 -40 -11 -21 -11 -21 -8 5 3 20 0 25 -11 20 -12 -4 -14 -1 -9 12 4 10
7 22 7 27 0 5 5 9 10 9 6 0 9 -3 8 -7z m-29 -89 c-14 -13 -15 -13 -13 8 1 13
3 25 3 28 1 2 6 -1 13 -8 10 -9 9 -16 -3 -28z m-62 -166 c-3 -8 -6 -5 -6 6 -1
11 2 17 5 13 3 -3 4 -12 1 -19z m-12 -68 c-3 -5 -11 -10 -16 -10 -6 0 -7 5 -4
10 3 6 11 10 16 10 6 0 7 -4 4 -10z m559 -59 c3 -5 9 -51 12 -102 3 -54 11
-97 17 -101 7 -5 3 -8 -10 -8 -29 0 -40 33 -48 153 -3 53 -1 67 10 67 7 0 16
-4 19 -9z m-43 -115 c14 -91 14 -93 -6 -91 -30 4 -31 5 -15 15 12 7 12 12 2
22 -6 6 -12 21 -12 33 -1 11 -7 31 -14 44 -10 18 -10 29 -2 47 20 43 32 25 47
-70z m-71 40 c0 -13 2 -39 5 -57 3 -19 3 -28 -1 -21 -8 18 -24 15 -25 -5 0
-15 -2 -15 -9 2 -5 13 -4 24 4 30 7 6 11 16 8 24 -4 11 -6 11 -13 0 -7 -11 -9
-9 -9 7 0 20 17 44 32 44 4 0 8 -11 8 -24z m-829 -23 c-8 -15 -10 -15 -11 -2
0 17 10 32 18 25 2 -3 -1 -13 -7 -23z m715 -9 c-30 -21 -45 -16 -16 6 14 10
27 16 30 13 3 -2 -4 -11 -14 -19z m122 -185 c-1 -20 -4 -26 -9 -17 -12 18 -11
61 0 53 5 -3 9 -19 9 -36z m52 -53 c0 -7 -9 -16 -20 -19 -25 -6 -26 1 -2 19
22 17 22 17 22 0z m10 -44 c0 -10 -7 -19 -15 -19 -17 0 -17 0 -9 21 8 22 24
20 24 -2z m115 8 c-3 -5 -10 -10 -16 -10 -5 0 -9 5 -9 10 0 6 7 10 16 10 8 0
12 -4 9 -10z m79 -13 c3 4 6 1 6 -5 0 -7 -8 -12 -19 -12 -10 0 -33 -3 -50 -6
-20 -4 -31 -3 -31 5 0 6 12 11 26 11 14 0 23 4 19 10 -4 7 2 7 18 1 14 -6 28
-7 31 -4z m56 -7 c0 -5 -4 -10 -10 -10 -5 0 -10 5 -10 10 0 6 5 10 10 10 6 0
10 -4 10 -10z"/>
<path d="M5600 4241 c-25 -22 -52 -43 -62 -46 -35 -12 -96 -184 -157 -445 -25
-107 -35 -169 -29 -177 11 -14 2 -51 -20 -75 -8 -10 -12 -18 -7 -18 4 0 2 -6
-4 -14 -6 -7 -9 -21 -5 -30 3 -9 4 -23 0 -31 -5 -14 -10 -14 -43 0 -20 9 -44
13 -52 10 -14 -6 -114 -26 -198 -40 -17 -3 -35 -1 -38 5 -3 5 1 11 9 11 9 1
19 2 24 3 4 1 30 5 57 10 72 10 153 34 161 48 5 8 -2 9 -25 5 -27 -6 -32 -4
-30 11 4 45 0 50 -43 50 -24 -1 -81 -9 -128 -20 -47 -11 -96 -22 -110 -24 -14
-3 -42 -9 -62 -13 -20 -5 -39 -7 -41 -5 -2 2 8 73 23 158 18 103 24 161 18
177 -5 13 -7 40 -4 59 7 52 -37 136 -91 174 -32 22 -45 26 -55 18 -11 -8 -16
-4 -26 18 -20 44 -102 48 -102 4 0 -8 -3 -14 -7 -14 -5 0 -7 15 -7 32 2 40 -5
55 -17 37 -7 -11 -9 -10 -9 4 0 9 -4 17 -10 17 -5 0 -10 -6 -10 -13 0 -8 -9
-22 -20 -32 -11 -10 -20 -24 -20 -32 0 -7 -9 -21 -20 -30 -11 -10 -20 -26 -20
-37 0 -11 -9 -39 -21 -62 -16 -35 -44 -150 -73 -309 -2 -11 -11 -60 -21 -110
-9 -49 -19 -101 -21 -115 -8 -51 -14 -96 -19 -142 -3 -26 -9 -68 -14 -93 -11
-58 -5 -375 8 -423 6 -21 12 -48 15 -62 17 -87 21 -93 42 -66 14 19 14 19 14
-2 0 -25 16 -34 63 -36 24 0 39 -9 60 -35 15 -18 27 -40 27 -47 0 -8 9 -14 21
-14 15 0 19 5 15 15 -3 9 0 15 8 15 8 0 19 -13 25 -30 12 -35 13 -35 51 -15
35 18 50 61 48 141 -1 33 3 67 7 74 5 8 8 27 7 42 -1 14 2 30 8 33 6 4 8 11 4
16 -3 6 2 31 11 55 9 25 15 54 12 66 -9 33 39 69 144 107 150 55 161 60 156
73 -2 7 16 25 39 41 53 32 58 50 12 36 -40 -11 -54 -12 -44 -1 4 4 11 7 14 7
4 0 21 10 39 23 17 12 39 22 48 22 11 0 15 5 12 14 -7 18 40 36 68 26 25 -9
35 -4 35 18 0 10 -13 22 -30 29 -41 15 -39 38 3 39 19 0 52 10 75 22 l41 21
-1 -29 c-1 -18 -8 -32 -17 -35 -9 -3 -27 -14 -41 -25 l-25 -19 31 4 31 4 -14
-67 c-8 -37 -16 -92 -18 -122 -2 -30 -15 -111 -30 -180 -15 -69 -28 -152 -30
-185 -2 -33 -10 -89 -19 -125 -8 -36 -18 -80 -21 -99 -3 -19 -7 -37 -9 -40 -2
-3 -7 -31 -11 -61 -4 -30 -9 -58 -11 -61 -2 -3 -10 -45 -19 -93 -32 -184 -44
-253 -50 -296 -3 -25 -8 -56 -10 -70 -21 -139 -27 -370 -12 -400 8 -14 12 -42
9 -63 -3 -29 -1 -37 12 -37 9 0 16 6 17 13 1 6 3 28 4 47 2 19 6 94 10 165 4
72 11 135 17 142 5 7 9 29 7 50 -2 21 1 60 6 88 7 42 9 46 16 27 5 -13 13 -21
18 -17 6 3 8 12 5 20 -4 8 1 17 9 21 10 3 14 15 12 32 -2 20 -8 27 -24 26 -18
-1 -21 4 -19 33 3 40 18 56 18 20 0 -14 7 -27 15 -30 10 -4 18 7 29 41 9 30
14 39 15 24 2 -38 20 -14 19 26 0 32 24 135 101 437 13 51 17 81 10 84 -6 2
-3 11 7 22 11 13 25 16 44 12 35 -7 57 25 40 57 -6 11 -9 24 -6 28 3 5 7 21
10 37 16 89 28 135 37 141 5 3 7 20 3 38 -3 20 0 47 9 68 8 19 15 62 16 95 0
33 5 72 11 87 5 14 7 26 5 26 -2 0 0 12 5 26 6 15 15 54 20 88 13 87 15 95 24
103 4 4 6 1 4 -7 -2 -9 6 -16 20 -18 24 -4 29 -17 10 -25 -10 -4 -9 -8 2 -16
12 -8 12 -11 1 -11 -8 0 -11 -7 -8 -20 3 -12 0 -20 -8 -20 -7 0 -17 -6 -24
-13 -24 -29 -61 -237 -42 -237 12 0 8 -54 -7 -100 -16 -46 -22 -142 -11 -156
6 -7 -1 -45 -16 -97 -58 -202 -137 -545 -138 -604 -1 -35 -5 -63 -9 -63 -5 0
-8 -10 -8 -22 0 -13 -4 -30 -10 -38 -5 -9 -5 -19 1 -27 6 -7 8 -16 5 -22 -9
-14 4 -41 20 -41 11 0 12 -4 4 -19 -13 -26 -13 -31 5 -31 7 0 19 8 24 18 8 14
10 11 8 -16 -2 -34 -23 -47 -63 -40 -15 2 -19 -3 -20 -25 -1 -15 3 -30 7 -33
8 -5 13 8 11 27 -1 3 12 6 28 5 17 -1 30 -5 30 -9 0 -4 9 -3 20 3 11 6 24 29
30 53 7 23 20 56 30 73 11 20 15 35 9 41 -6 6 -4 24 6 46 8 20 15 47 16 59 0
13 3 17 6 11 7 -20 23 -15 32 10 6 14 4 29 -5 42 -21 30 -18 60 26 227 57 220
86 293 60 147 -5 -30 -12 -70 -15 -89 -12 -75 -22 -130 -30 -182 -3 -17 -8
-35 -11 -39 -2 -4 0 -10 4 -13 9 -5 129 430 124 451 -2 7 5 27 13 44 11 21 13
35 7 41 -7 7 -7 19 -1 35 5 13 6 35 3 49 -5 20 -2 24 14 24 30 0 36 17 12 30
-11 6 -19 14 -16 18 2 4 7 31 11 61 7 59 23 110 24 79 1 -25 21 -23 21 2 0 11
-3 20 -7 20 -5 0 -9 19 -10 42 -1 26 1 37 6 29 5 -8 14 -10 20 -6 9 5 9 10 0
21 -6 7 -15 12 -19 9 -5 -3 -6 4 -3 14 3 11 11 17 18 15 7 -3 16 -1 19 4 9 15
-4 43 -16 36 -6 -4 -5 2 1 14 6 12 16 24 21 27 13 8 13 45 0 45 -5 0 -10 14
-10 30 0 22 5 30 18 30 16 1 16 2 -1 15 -18 13 -18 14 2 31 14 13 17 20 9 25
-6 4 -13 15 -14 24 -2 11 3 14 17 10 16 -5 19 -1 19 24 0 17 -4 31 -10 31 -5
0 -10 5 -10 10 0 6 6 10 14 10 10 0 16 18 19 63 3 34 21 116 40 182 28 96 32
121 21 123 -10 3 -8 9 8 22 18 14 23 29 24 67 0 26 -4 51 -9 54 -5 3 1 21 12
39 l20 34 -52 35 c-29 19 -59 42 -67 51 -15 17 -59 30 -113 33 -24 2 -27 5
-22 25 4 16 1 22 -12 22 -10 0 -27 3 -38 6 -14 3 -34 -7 -65 -35z m-970 -456
c0 -14 -3 -25 -7 -25 -5 0 -8 11 -8 25 0 14 3 25 8 25 4 0 7 -11 7 -25z m986
-73 c-12 -11 -17 7 -9 34 l8 29 3 -28 c2 -16 1 -31 -2 -35z m-1005 -14 c-8
-20 -9 -18 -8 15 1 24 4 32 9 23 4 -8 4 -25 -1 -38z m916 0 c-3 -8 -6 -5 -6 6
-1 11 2 17 5 13 3 -3 4 -12 1 -19z m68 -117 c-3 -12 -10 -21 -15 -21 -6 0 -6
10 0 24 5 13 7 26 6 29 -2 2 1 1 7 -3 5 -5 6 -17 2 -29z m-443 -105 c19 -27 7
-34 -44 -31 -29 2 -55 1 -58 -4 -3 -4 -22 -11 -42 -14 -29 -4 -38 -2 -38 8 0
8 8 12 20 10 22 -4 28 20 8 28 -7 3 5 6 27 7 22 1 51 5 65 9 28 8 51 3 62 -13z
m628 -36 c0 -5 -2 -10 -4 -10 -3 0 -8 5 -11 10 -3 6 -1 10 4 10 6 0 11 -4 11
-10z m-890 -27 c-12 -8 -28 -12 -36 -9 -24 9 -7 25 26 24 29 -1 29 -2 10 -15z
m547 -15 c-3 -8 -6 -5 -6 6 -1 11 2 17 5 13 3 -3 4 -12 1 -19z m47 -25 c-2
-21 -3 -45 -4 -53 -1 -8 -6 -4 -11 10 -11 27 -3 94 10 86 4 -3 7 -22 5 -43z
m286 -17 c0 -3 -4 -8 -10 -11 -5 -3 -10 -1 -10 4 0 6 5 11 10 11 6 0 10 -2 10
-4z m-330 -20 c0 -3 -4 -8 -10 -11 -5 -3 -10 -1 -10 4 0 6 5 11 10 11 6 0 10
-2 10 -4z m-303 -41 c0 -8 -4 -15 -9 -15 -4 0 -8 7 -8 15 0 8 4 15 8 15 5 0 9
-7 9 -15z m340 -10 c0 -18 -19 -15 -25 3 -2 7 3 12 11 12 7 0 14 -7 14 -15z
m-400 -21 c-3 -3 -12 -4 -19 -1 -8 3 -5 6 6 6 11 1 17 -2 13 -5z m333 -69 c0
-8 -4 -15 -10 -15 -5 0 -7 7 -4 15 4 8 8 15 10 15 2 0 4 -7 4 -15z m44 -47
c-3 -24 -6 -59 -7 -78 -2 -25 -8 -36 -21 -38 -14 -3 -17 0 -13 12 4 9 -2 21
-16 31 l-22 15 23 6 c12 4 22 10 22 15 0 14 28 79 34 79 3 0 3 -19 0 -42z
m-44 12 c0 -5 -4 -10 -10 -10 -5 0 -10 5 -10 10 0 6 5 10 10 10 6 0 10 -4 10
-10z m167 -22 c-3 -7 -5 -2 -5 12 0 14 2 19 5 13 2 -7 2 -19 0 -25z m154 19
c-1 -4 -1 -14 -1 -22 0 -8 -6 -15 -14 -15 -9 0 -12 8 -8 25 4 22 25 33 23 12z
m-741 -21 c0 -2 -7 -7 -16 -10 -8 -3 -12 -2 -9 4 6 10 25 14 25 6z m367 -52
c-3 -3 -12 -4 -19 -1 -8 3 -5 6 6 6 11 1 17 -2 13 -5z m-1000 -30 c-3 -3 -12
-4 -19 -1 -8 3 -5 6 6 6 11 1 17 -2 13 -5z m998 -19 c0 -14 -3 -25 -7 -25 -10
0 -10 34 -1 43 3 4 7 7 7 7 1 0 1 -11 1 -25z m360 -14 c3 -5 1 -12 -5 -16 -5
-3 -10 1 -10 9 0 18 6 21 15 7z m-295 -82 c0 -29 -4 -39 -16 -39 -8 0 -13 4
-10 8 3 5 6 25 8 45 3 48 18 37 18 -14z m-83 -34 c0 -10 -6 -14 -14 -10 -8 3
-17 5 -19 5 -3 0 -2 5 1 10 10 16 32 12 32 -5z m346 -15 c3 -14 1 -20 -6 -17
-7 2 -14 14 -15 26 -4 28 13 20 21 -9z m-313 -4 c0 -3 -4 -8 -10 -11 -5 -3
-10 -1 -10 4 0 6 5 11 10 11 6 0 10 -2 10 -4z m31 -43 c6 -50 2 -121 -9 -142
-7 -14 -10 -18 -8 -9 3 9 1 30 -3 46 -5 17 -5 36 1 46 7 12 7 21 0 28 -6 6 -8
17 -5 24 5 15 22 19 24 7z m-87 -30 c-3 -69 -3 -69 -20 -51 -14 14 -14 18 0
47 20 38 22 38 20 4z m363 -45 c-2 -13 -4 -5 -4 17 -1 22 1 32 4 23 2 -10 2
-28 0 -40z m-307 -38 c0 -5 -7 -7 -15 -4 -8 4 -12 10 -9 15 6 11 24 2 24 -11z
m-93 -82 c1 -12 9 -28 16 -36 13 -12 12 -21 -8 -66 -27 -57 -115 -338 -115
-363 0 -9 -3 -14 -6 -10 -4 3 -1 28 6 54 11 46 16 66 24 108 2 11 13 61 25
110 23 99 29 131 38 188 6 41 18 50 20 15z m383 -17 c0 -19 -26 -48 -36 -39
-7 8 14 58 26 58 5 0 10 -8 10 -19z m-460 -522 c0 -5 -4 -9 -10 -9 -5 0 -10 7
-10 16 0 8 5 12 10 9 6 -3 10 -10 10 -16z m204 -121 c6 -37 -6 -44 -19 -11 -8
20 -9 30 -1 35 13 9 14 8 20 -24z m-334 -432 c0 -3 -4 -8 -10 -11 -5 -3 -10
-1 -10 4 0 6 5 11 10 11 6 0 10 -2 10 -4z"/>
<path d="M504 4168 c-15 -29 -28 -64 -29 -78 -2 -14 -10 -43 -20 -64 -9 -22
-19 -56 -22 -75 -7 -52 -34 -113 -49 -107 -14 5 -26 -42 -13 -50 5 -3 13 5 18
18 9 21 10 19 10 -13 1 -42 -7 -53 -26 -37 -18 14 -20 11 -27 -44 -5 -35 -3
-48 6 -48 7 0 6 -5 -4 -12 -14 -11 -54 -170 -83 -323 -26 -140 -32 -184 -34
-278 -1 -60 -6 -131 -11 -160 -4 -29 -4 -53 0 -55 5 -2 6 -20 4 -40 -5 -34 -4
-35 9 -19 14 17 16 18 25 1 7 -13 5 -25 -10 -45 -18 -24 -19 -29 -6 -48 11
-15 14 -41 12 -86 -2 -35 1 -67 6 -70 13 -8 31 30 24 52 -4 11 -3 14 3 6 4 -6
17 -11 27 -10 28 3 31 -21 4 -25 -17 -2 -22 -9 -20 -23 7 -46 13 -51 27 -20
l13 30 1 -32 c1 -49 21 -40 21 10 1 34 3 39 11 24 6 -10 8 -30 4 -46 -3 -15 0
-41 6 -57 15 -35 16 -40 18 -59 2 -23 37 -18 48 7 9 22 10 21 22 -14 11 -35
13 -36 29 -20 16 15 16 18 2 29 -15 12 -8 28 13 28 8 0 13 24 14 69 2 51 6 72
18 78 16 9 20 39 8 52 -13 13 -11 85 3 97 16 13 18 57 5 93 -6 13 -6 26 -1 28
4 2 11 27 14 56 3 29 8 58 12 64 4 6 8 27 10 47 5 63 13 122 24 162 6 22 9 43
7 47 -8 12 12 54 23 47 6 -4 6 -15 0 -30 -9 -23 -6 -29 13 -26 4 0 7 -6 7 -14
0 -20 10 -19 26 3 12 16 13 15 14 -5 0 -13 -4 -23 -8 -23 -5 0 -9 -7 -9 -15 0
-8 6 -15 14 -15 7 0 13 5 13 10 0 6 4 10 9 10 5 0 21 -53 36 -117 34 -154 90
-331 131 -415 30 -62 89 -156 104 -168 4 -3 16 -26 27 -51 18 -41 36 -66 95
-129 9 -10 13 -21 10 -25 -11 -10 78 -86 168 -144 163 -104 170 -106 356 -116
76 -4 93 -3 98 10 3 8 12 15 20 15 9 0 13 -6 10 -14 -4 -11 4 -12 46 -4 37 7
56 6 66 -3 11 -9 14 -8 14 4 0 10 19 22 53 33 86 28 127 52 127 75 0 18 -5 20
-47 15 -27 -3 -42 -3 -35 0 25 12 10 22 -40 29 -95 12 -181 47 -288 118 -61
40 -178 160 -219 224 -19 29 -37 50 -42 48 -16 -10 -71 90 -84 152 -4 18 -15
39 -24 45 -23 16 -41 51 -41 77 0 12 -4 21 -10 21 -5 0 -10 15 -10 33 0 17 -9
46 -20 62 -11 17 -20 42 -20 57 0 14 -7 54 -16 88 -9 34 -17 97 -18 141 -1 67
-5 82 -26 104 -20 21 -21 25 -6 25 9 0 14 5 11 10 -4 6 -10 8 -15 5 -17 -10
-16 32 1 70 10 22 19 34 19 27 0 -7 5 -10 11 -7 6 4 8 14 5 22 -4 9 -2 11 6 7
7 -5 9 -2 5 9 -4 10 6 24 29 42 65 50 134 124 134 145 0 11 4 20 9 20 14 0 81
71 81 86 0 8 5 14 10 14 6 0 24 20 42 44 35 51 48 123 23 132 -8 4 -15 15 -15
25 0 10 -6 19 -14 19 -8 0 -17 7 -20 16 -5 13 -9 14 -21 4 -18 -15 -30 -6 -30
23 0 13 -6 22 -15 22 -8 0 -23 10 -33 23 -10 12 -23 22 -28 22 -24 0 -77 -54
-149 -152 -67 -91 -132 -170 -195 -239 -15 -16 -20 -39 -9 -39 4 0 13 8 20 17
7 10 16 14 21 10 4 -5 -3 -19 -17 -31 -14 -12 -38 -37 -54 -56 -16 -19 -38
-37 -50 -40 -14 -4 -22 -15 -24 -33 -3 -26 4 -32 36 -28 21 3 13 -16 -14 -33
-18 -13 -25 -14 -23 -4 1 7 1 18 0 25 -1 16 -53 11 -59 -6 -3 -8 0 -11 7 -7
19 12 12 -4 -12 -27 -13 -12 -47 -56 -76 -98 -43 -64 -111 -142 -88 -102 4 6
2 13 -5 15 -8 3 -9 12 0 36 13 37 5 40 -30 12 l-25 -19 5 24 c4 24 12 29 39
26 19 -2 33 33 30 77 -1 32 -6 40 -20 39 -10 -1 -15 -7 -13 -13 5 -12 -15 -79
-27 -90 -3 -4 -2 8 3 27 6 19 10 51 10 71 0 28 4 38 16 38 13 0 14 3 5 13 -6
8 -9 16 -6 19 3 2 9 26 14 53 8 42 7 48 -10 52 -10 3 -19 12 -19 20 0 13 3 13
15 3 9 -7 18 -10 21 -7 9 9 94 358 94 388 0 16 -4 29 -10 29 -5 0 -10 10 -10
23 l-1 22 -13 -24 c-14 -25 -31 -14 -20 13 3 9 1 16 -5 16 -7 0 -14 -8 -17
-17 -3 -10 -10 -27 -15 -38 -8 -18 -9 -18 -8 5 2 39 -2 47 -11 25 -8 -18 -9
-18 -9 -2 -1 10 -8 32 -17 49 -12 23 -21 29 -38 26 -22 -4 -50 14 -39 26 4 3
3 6 0 6 -4 0 -19 -24 -33 -52z m111 -278 c-9 -41 -17 -33 -9 9 4 17 9 30 11
27 3 -2 2 -19 -2 -36z m39 -109 c-4 -17 -9 -30 -11 -27 -3 2 -2 19 2 36 9 41
17 33 9 -9z m-69 -18 c-18 -42 -25 -52 -25 -34 0 14 28 71 35 71 3 0 -2 -17
-10 -37z m670 -53 c-10 -11 -20 -18 -23 -15 -3 3 3 14 13 25 10 11 20 18 23
15 3 -3 -3 -14 -13 -25z m-699 -54 c3 -16 0 -26 -7 -26 -7 0 -9 3 -6 6 3 4 2
14 -3 24 -5 10 -6 20 -3 24 9 9 13 2 19 -28z m664 24 c0 -5 -4 -10 -10 -10 -5
0 -10 5 -10 10 0 6 5 10 10 10 6 0 10 -4 10 -10z m65 -20 c3 -5 1 -10 -4 -10
-6 0 -11 5 -11 10 0 6 2 10 4 10 3 0 8 -4 11 -10z m-265 -43 c0 -2 -11 -17
-25 -33 -28 -33 -33 -26 -9 11 14 21 34 34 34 22z m146 -82 c-25 -26 -36 -31
-36 -15 0 14 42 50 51 44 4 -2 -3 -16 -15 -29z m-579 -37 c-3 -7 -5 -2 -5 12
0 14 2 19 5 13 2 -7 2 -19 0 -25z m-62 -11 c-5 -18 -12 -23 -26 -20 -10 3 -16
9 -13 14 3 5 9 7 14 4 5 -3 12 4 15 16 9 28 17 17 10 -14z m-11 -81 c-3 -14
-11 -26 -16 -26 -6 0 -7 9 -3 23 3 12 7 28 7 35 1 7 5 9 10 4 5 -5 6 -21 2
-36z m310 -4 c-6 -4 -16 -16 -22 -27 -11 -19 -11 -19 -12 -1 0 19 0 19 -22 0
l-23 -19 19 22 c10 13 22 20 27 18 4 -3 10 -1 14 5 3 5 12 10 18 10 8 0 9 -3
1 -8z m206 -12 c0 -5 -5 -10 -11 -10 -5 0 -7 5 -4 10 3 6 8 10 11 10 2 0 4 -4
4 -10z m84 -35 c3 -9 0 -15 -9 -15 -9 0 -12 6 -9 15 4 8 7 15 9 15 2 0 5 -7 9
-15z m-357 -47 c-3 -8 -6 -5 -6 6 -1 11 2 17 5 13 3 -3 4 -12 1 -19z m-166
-39 c-6 -16 -10 -18 -10 -7 -1 22 12 55 16 42 2 -6 -1 -22 -6 -35z m-38 11 c3
-11 1 -20 -4 -20 -5 0 -9 9 -9 20 0 11 2 20 4 20 2 0 6 -9 9 -20z m-226 -322
c-3 -8 -6 -5 -6 6 -1 11 2 17 5 13 3 -3 4 -12 1 -19z m63 -27 c0 -6 -4 -12 -8
-15 -5 -3 -9 1 -9 9 0 8 4 15 9 15 4 0 8 -4 8 -9z m-140 -58 c-4 -42 -5 -44
-8 -15 -3 30 2 62 10 62 2 0 1 -21 -2 -47z m70 -8 c0 -8 -2 -15 -4 -15 -2 0
-6 7 -10 15 -3 8 -1 15 4 15 6 0 10 -7 10 -15z m60 -17 c-1 -26 -3 -30 -10
-16 -6 9 -7 23 -4 32 9 25 14 19 14 -16z m-11 -82 c-9 -8 -10 -7 -5 7 3 10 7
24 7 30 1 7 3 4 6 -7 3 -10 -1 -23 -8 -30z m-45 -2 c9 -24 8 -28 -12 -41 -17
-10 -19 -8 -20 23 -1 36 20 48 32 18z m56 -29 c0 -8 -4 -15 -10 -15 -5 0 -7 7
-4 15 4 8 8 15 10 15 2 0 4 -7 4 -15z m-91 -102 c0 -25 -1 -25 -8 -8 -5 11 -7
23 -4 28 8 14 13 7 12 -20z m741 -118 c7 -9 8 -15 2 -15 -5 0 -12 7 -16 15 -3
8 -4 15 -2 15 2 0 9 -7 16 -15z m240 -131 c0 -2 -7 -4 -15 -4 -8 0 -15 4 -15
10 0 5 7 7 15 4 8 -4 15 -8 15 -10z m-56 -97 c-3 -9 -10 -14 -16 -11 -5 4 -5
11 1 18 6 7 9 15 7 18 -1 3 1 2 6 -2 5 -3 6 -14 2 -23z m42 -22 c15 -14 34
-23 41 -20 8 2 12 1 8 -4 -3 -5 1 -12 7 -14 9 -4 9 -6 -2 -7 -8 -1 -23 -3 -32
-5 -12 -2 -18 3 -18 16 0 10 -9 24 -20 31 -11 7 -20 16 -20 20 0 13 8 9 36
-17z m134 -28 c0 -4 -10 -3 -21 4 -17 9 -19 13 -8 20 13 8 28 -5 29 -24z m310
-202 c8 -2 18 -4 23 -4 4 -1 7 -5 7 -10 0 -10 -80 7 -95 21 -9 8 14 6 65 -7z"/>
<path d="M3655 4150 c-11 -4 -26 -5 -32 -3 -7 3 -13 -2 -13 -11 0 -13 11 -15
68 -11 37 2 69 4 72 4 2 1 -1 6 -8 13 -14 14 -59 18 -87 8z"/>
<path d="M3790 4130 c0 -5 7 -10 16 -10 8 0 12 5 9 10 -3 6 -10 10 -16 10 -5
0 -9 -4 -9 -10z"/>
<path d="M3392 4098 c-19 -5 -39 -7 -45 -5 -6 2 -19 -6 -29 -17 -10 -12 -17
-16 -18 -9 0 17 -38 4 -55 -20 -8 -11 -12 -24 -9 -29 3 -4 -2 -5 -10 -2 -42
16 -192 -105 -228 -184 -20 -45 -28 -138 -13 -163 5 -8 10 -34 11 -59 0 -25 6
-58 13 -75 18 -43 39 -86 56 -115 7 -14 22 -43 33 -64 12 -27 28 -43 48 -49
43 -14 55 -27 48 -50 -5 -16 -3 -19 11 -13 13 5 16 2 11 -9 -4 -10 -1 -15 9
-13 7 2 30 -14 49 -35 19 -22 41 -37 48 -35 7 3 17 -4 23 -15 5 -11 18 -25 28
-31 15 -9 21 -7 33 8 14 19 14 19 14 -2 0 -12 -4 -22 -9 -22 -9 0 -9 -25 0
-34 2 -2 22 -7 44 -9 22 -3 47 -8 56 -11 10 -4 20 -3 24 3 13 23 35 11 35 -19
0 -16 5 -30 10 -30 6 0 10 6 10 13 0 8 3 7 10 -3 6 -9 5 -17 -3 -22 -9 -5 -9
-10 1 -20 11 -11 15 -10 23 5 6 9 17 17 25 17 8 0 12 -5 9 -11 -4 -5 0 -18 9
-28 16 -17 14 -19 -41 -34 -32 -8 -85 -24 -118 -35 -134 -46 -167 -52 -249
-46 -67 6 -81 4 -91 -10 -9 -11 -28 -17 -61 -18 -27 0 -53 -6 -57 -12 -6 -8
-10 -8 -13 1 -4 8 -17 10 -37 7 -56 -10 -61 -13 -47 -29 8 -10 24 -13 49 -10
25 3 32 2 21 -5 -21 -14 -90 -13 -90 1 0 8 -4 8 -13 1 -7 -6 -37 -13 -67 -17
-30 -3 -63 -8 -73 -11 -28 -9 -10 -23 23 -19 17 2 28 0 25 -5 -3 -5 -1 -11 5
-15 14 -9 140 -13 145 -5 6 9 102 6 111 -3 4 -4 -6 -7 -22 -7 -97 -2 -174 -19
-174 -40 0 -5 14 -7 33 -4 27 4 29 3 10 -5 -27 -12 -30 -28 -5 -34 14 -3 13
-6 -8 -15 -26 -11 -19 -14 33 -14 16 -1 27 -6 27 -14 0 -8 8 -15 18 -15 9 -1
30 -2 46 -3 16 0 31 -7 34 -15 3 -9 0 -11 -8 -6 -7 4 -16 2 -21 -6 -14 -22
-10 -32 11 -26 10 3 21 0 24 -7 2 -6 5 -3 5 7 1 21 18 23 18 2 0 -17 0 -17
-44 -21 -26 -2 -33 2 -43 27 -12 28 -14 29 -62 23 -45 -6 -50 -5 -55 15 -7 29
-31 27 -43 -5 -14 -35 -13 -44 5 -44 9 0 12 6 8 18 -5 13 1 11 23 -8 16 -14
31 -27 34 -29 3 -2 -9 -1 -26 2 -34 7 -45 2 -38 -17 4 -9 41 -12 144 -10 82 2
142 -1 145 -6 8 -13 55 -13 55 0 0 6 7 10 16 10 8 0 12 -5 8 -11 -4 -7 2 -9
17 -7 12 1 24 9 27 17 3 9 0 11 -8 6 -8 -5 -11 -4 -7 1 8 13 167 16 167 3 0
-11 53 -3 81 11 11 6 27 7 42 1 14 -6 28 -7 32 -3 3 3 3 -1 -1 -11 -4 -13 -1
-17 15 -17 12 0 21 6 21 13 0 14 81 73 94 69 4 -1 13 2 20 7 13 11 96 3 96
-10 0 -5 6 -6 14 -3 8 3 16 -4 19 -18 l6 -22 31 29 c21 20 41 30 66 30 33 1
34 0 29 -26 l-6 -27 61 31 c52 27 60 36 57 55 -2 12 -1 25 4 27 4 3 11 25 14
48 8 54 -17 125 -86 238 -148 245 -276 378 -402 419 -50 16 -59 5 -22 -25 17
-14 -10 -2 -58 25 -48 28 -92 50 -97 50 -6 0 -10 9 -10 20 0 21 -73 66 -90 55
-6 -3 -10 -2 -10 2 0 5 -16 17 -35 27 -44 24 -44 42 -1 120 27 47 42 64 69 74
51 18 107 66 97 82 -6 10 -15 10 -39 2 -17 -6 -31 -8 -31 -4 0 15 59 29 106
25 31 -3 75 3 118 16 38 10 76 17 84 14 8 -3 17 -1 21 5 13 21 150 32 231 18
43 -7 46 -6 62 23 17 31 17 31 -12 53 -23 17 -27 25 -19 39 7 14 5 21 -10 29
-11 6 -35 32 -53 58 -32 46 -33 46 -36 20 -4 -30 -16 -37 -25 -13 -7 17 -69
50 -114 60 -43 9 -52 25 -12 20 41 -6 33 17 -10 26 -28 6 -34 3 -41 -16 -9
-25 -39 -25 -60 0 -14 16 -77 9 -115 -14 -18 -10 -38 -15 -50 -11 -23 8 -84
-28 -85 -51 0 -10 -12 -19 -31 -23 -45 -9 -49 -8 -43 9 4 9 0 15 -7 15 -9 1
-8 4 4 11 9 6 15 14 13 18 -3 4 20 16 50 26 30 10 57 22 60 26 8 13 -10 16
-44 7z m88 -72 c0 -2 -7 -6 -15 -10 -8 -3 -15 -1 -15 4 0 6 7 10 15 10 8 0 15
-2 15 -4z m375 -34 c16 -9 7 -11 -45 -6 -73 7 -150 -9 -150 -31 0 -19 -109
-33 -120 -15 -10 17 -31 3 -23 -15 8 -22 -15 -18 -27 4 -9 17 -5 20 38 30 29
6 51 6 57 0 13 -13 35 -11 33 3 -2 6 13 19 32 29 40 20 172 20 205 1z m-585
-4 c0 -4 -7 -8 -15 -8 -8 0 -15 4 -15 8 0 5 7 9 15 9 8 0 15 -4 15 -9z m-65
-7 c3 -5 2 -12 -3 -15 -5 -3 -9 1 -9 9 0 17 3 19 12 6z m18 -68 c-32 -26 -61
-51 -65 -57 -5 -7 -8 -5 -8 4 0 22 30 55 70 79 61 37 63 23 3 -26z m637 8 c19
-5 -30 -18 -75 -19 -41 -1 -55 2 -55 12 0 11 15 13 63 11 34 -1 64 -3 67 -4z
m-174 -24 c-4 -19 0 -25 24 -34 24 -9 30 -9 30 2 0 9 15 13 50 12 48 0 49 -1
43 -26 -6 -24 -5 -25 11 -12 18 15 32 9 21 -9 -4 -6 -14 -9 -23 -7 -10 2 -28
-2 -42 -9 -32 -16 -81 -7 -78 14 2 8 -3 17 -11 20 -10 3 -12 -1 -9 -16 5 -16
-1 -23 -23 -31 -25 -9 -29 -8 -29 9 0 12 -9 22 -22 25 -32 8 -133 -9 -131 -22
1 -5 -10 -10 -25 -10 -15 0 -36 -3 -47 -7 -18 -7 -18 -6 -2 4 9 6 17 19 17 29
0 21 26 36 35 21 9 -15 25 -12 25 5 0 8 3 15 8 15 4 1 43 12 87 25 100 30 98
30 91 2z m-586 -17 c0 -5 -5 -10 -11 -10 -5 0 -7 5 -4 10 3 6 8 10 11 10 2 0
4 -4 4 -10z m280 2 c0 -4 -9 -8 -19 -8 -11 0 -17 4 -15 8 3 4 12 8 20 8 8 0
14 -4 14 -8z m-166 -44 c-17 -29 -88 -108 -92 -103 -11 10 72 115 90 115 5 0
6 -6 2 -12z m80 -3 c-4 -8 -11 -12 -16 -9 -6 4 -5 10 3 15 19 12 19 11 13 -6z
m694 -25 c4 -12 2 -13 -9 -2 -7 6 -27 12 -45 12 -17 0 -37 6 -43 14 -10 12 -4
12 40 2 30 -6 54 -18 57 -26z m-359 -24 c-2 -2 -17 -6 -34 -9 l-30 -6 30 13
c26 12 47 13 34 2z m-74 -16 c-3 -5 -12 -10 -18 -10 -7 0 -6 4 3 10 19 12 23
12 15 0z m-475 -231 c0 -6 -4 -7 -10 -4 -5 3 -10 11 -10 16 0 6 5 7 10 4 6 -3
10 -11 10 -16z m66 -204 c1 -8 -2 -13 -7 -9 -5 3 -9 12 -9 21 0 19 13 9 16
-12z m-231 -625 c3 -5 -1 -10 -10 -10 -9 0 -13 5 -10 10 3 6 8 10 10 10 2 0 7
-4 10 -10z m55 0 c0 -5 -2 -10 -4 -10 -3 0 -8 5 -11 10 -3 6 -1 10 4 10 6 0
11 -4 11 -10z m-97 -7 c-7 -2 -19 -2 -25 0 -7 3 -2 5 12 5 14 0 19 -2 13 -5z
m407 -3 c0 -8 -150 -23 -157 -16 -3 3 10 9 28 15 39 11 129 11 129 1z m45 -30
c3 -6 -1 -7 -9 -4 -18 7 -21 14 -7 14 6 0 13 -4 16 -10z m-100 -19 c6 -2 -8
-7 -30 -11 -39 -7 -65 -4 -65 9 0 6 74 7 95 2z m275 -11 c-8 -5 -26 -9 -40 -9
-23 0 -23 1 -5 9 11 5 29 9 40 9 17 1 17 -1 5 -9z m-401 -12 c6 -7 15 -13 19
-14 4 0 18 -6 32 -12 23 -10 22 -11 -19 -11 -34 -1 -42 -4 -37 -16 3 -9 0 -15
-9 -15 -8 0 -15 6 -15 14 0 26 -40 26 -57 0 l-16 -25 -12 23 c-20 40 -9 53 41
50 27 -3 44 0 44 7 0 15 13 14 29 -1z m136 -28 c-3 -5 -13 -10 -21 -10 -8 0
-12 5 -9 10 3 6 13 10 21 10 8 0 12 -4 9 -10z m530 1 c3 -5 1 -12 -4 -15 -13
-8 -42 4 -35 15 7 12 31 12 39 0z m-77 -30 c-9 -14 -19 -18 -39 -14 -15 3 -36
0 -48 -6 -33 -18 -24 -3 12 19 17 11 44 20 60 20 24 0 26 -2 15 -19z m-270
-41 c9 0 12 -3 8 -7 -4 -4 -15 -8 -24 -8 -9 0 -16 -6 -14 -14 7 -33 -51 -34
-113 -3 -20 10 -30 11 -33 3 -5 -16 -22 -14 -22 4 0 8 -4 15 -10 15 -5 0 -10
5 -10 12 0 6 9 3 20 -7 11 -10 20 -13 20 -7 0 5 8 9 18 7 9 -2 20 -4 24 -4 4
-1 13 -8 21 -16 13 -13 16 -11 27 15 10 25 17 29 36 24 20 -5 23 -3 19 12 -4
12 -1 11 6 -3 7 -13 19 -23 27 -23z m140 18 c21 -21 13 -25 -23 -14 -19 6 -35
14 -35 18 0 13 45 9 58 -4z m312 -12 c0 -3 -4 -8 -10 -11 -5 -3 -10 -1 -10 4
0 6 5 11 10 11 6 0 10 -2 10 -4z m57 -2 c-3 -3 -12 -4 -19 -1 -8 3 -5 6 6 6
11 1 17 -2 13 -5z m-726 -37 c-1 -12 -15 -9 -19 4 -3 6 1 10 8 8 6 -3 11 -8
11 -12z m279 -3 c0 -8 -19 -13 -24 -6 -3 5 1 9 9 9 8 0 15 -2 15 -3z m138 -32
c-10 -11 -13 -10 -21 4 -6 11 -5 19 4 25 18 11 31 -11 17 -29z m-191 22 c-3
-3 -12 -4 -19 -1 -8 3 -5 6 6 6 11 1 17 -2 13 -5z m-460 -10 c-3 -3 -12 -4
-19 -1 -8 3 -5 6 6 6 11 1 17 -2 13 -5z"/>
<path d="M3637 3883 c-12 -11 -8 -23 8 -23 8 0 15 7 15 15 0 16 -12 20 -23 8z"/>
<path d="M423 4033 c-7 -24 -8 -42 -2 -47 5 -6 9 0 9 17 0 15 5 27 10 27 6 0
10 9 10 20 0 32 -14 23 -27 -17z"/>
<path d="M2580 4040 c0 -11 5 -20 10 -20 6 0 10 9 10 20 0 11 -4 20 -10 20 -5
0 -10 -9 -10 -20z"/>
<path d="M2624 4023 c2 -15 5 -43 5 -60 1 -18 5 -33 11 -33 14 0 5 113 -9 118
-8 3 -10 -5 -7 -25z"/>
<path d="M3337 4033 c-4 -3 -7 -12 -7 -20 0 -17 26 -17 33 1 8 21 -11 35 -26
19z"/>
<path d="M750 3990 c0 -5 5 -10 10 -10 6 0 10 5 10 10 0 6 -4 10 -10 10 -5 0
-10 -4 -10 -10z"/>
<path d="M760 3925 c0 -8 5 -15 10 -15 6 0 10 7 10 15 0 8 -4 15 -10 15 -5 0
-10 -7 -10 -15z"/>
<path d="M730 3920 c0 -5 5 -10 10 -10 6 0 10 5 10 10 0 6 -4 10 -10 10 -5 0
-10 -4 -10 -10z"/>
<path d="M390 3894 c0 -8 5 -12 10 -9 6 3 10 10 10 16 0 5 -4 9 -10 9 -5 0
-10 -7 -10 -16z"/>
<path d="M2636 3890 c-3 -8 -7 -43 -10 -77 -3 -49 0 -63 10 -63 10 0 13 8 10
25 -3 13 0 40 5 60 7 23 7 41 0 53 -8 14 -10 15 -15 2z"/>
<path d="M725 3881 c-11 -11 -4 -20 12 -14 11 4 14 3 9 -5 -4 -7 -3 -12 2 -12
8 0 22 22 22 35 0 5 -40 2 -45 -4z"/>
<path d="M731 3782 c0 -7 -9 -12 -18 -10 -10 2 -19 -5 -21 -16 -2 -11 0 -16 7
-12 15 10 14 -8 -4 -51 -8 -19 -15 -40 -15 -45 0 -15 25 -3 26 13 1 8 9 31 18
53 9 21 15 48 13 60 -2 11 -5 15 -6 8z"/>
<path d="M2629 3711 c-3 -21 -4 -26 -12 -38 -9 -14 -1 -33 13 -33 5 0 7 6 4
14 -3 8 -1 24 5 35 7 13 8 22 1 26 -5 3 -11 1 -11 -4z"/>
<path d="M657 3593 c-5 -26 25 -74 36 -56 5 8 10 49 8 71 -2 24 -39 13 -44
-15z"/>
<path d="M1330 3607 c0 -7 -11 -25 -26 -40 -26 -28 -25 -47 3 -47 9 0 14 3 10
6 -3 4 5 26 18 50 19 35 21 44 10 44 -8 0 -15 -6 -15 -13z"/>
<path d="M2614 3587 c-9 -24 6 -44 18 -22 7 11 6 21 -1 28 -7 7 -12 6 -17 -6z"/>
<path d="M2610 3505 c0 -19 5 -35 10 -35 6 0 10 16 10 35 0 19 -4 35 -10 35
-5 0 -10 -16 -10 -35z"/>
<path d="M1239 3510 c-10 -7 -8 -11 11 -18 31 -12 37 -8 18 12 -9 9 -20 11
-29 6z"/>
<path d="M1187 3448 c-30 -28 -34 -38 -14 -38 19 0 50 36 45 51 -2 7 -14 3
-31 -13z"/>
<path d="M2538 3439 c-22 -38 -23 -55 -2 -63 24 -9 25 -8 12 14 -10 16 -9 23
10 43 12 13 19 27 15 30 -11 12 -18 8 -35 -24z"/>
<path d="M2604 3408 c-12 -18 -14 -88 -3 -88 10 0 10 0 13 41 2 14 6 34 9 43
7 19 -8 22 -19 4z"/>
<path d="M2520 3351 c0 -41 34 -56 36 -16 2 18 -3 25 -17 25 -10 0 -19 -4 -19
-9z"/>
<path d="M5226 3224 c-4 -10 -1 -14 6 -12 15 5 23 28 10 28 -5 0 -13 -7 -16
-16z"/>
<path d="M2900 2780 c0 -5 5 -10 11 -10 5 0 7 5 4 10 -3 6 -8 10 -11 10 -2 0
-4 -4 -4 -10z"/>
<path d="M2787 2773 c-13 -13 -7 -32 8 -27 8 4 15 12 15 20 0 15 -12 19 -23 7z"/>
<path d="M2730 2763 c0 -6 -9 -13 -20 -16 -26 -7 -26 -27 -1 -27 19 0 39 35
27 47 -3 4 -6 2 -6 -4z"/>
<path d="M2622 2678 c5 -15 50 -17 55 -3 2 6 -11 12 -28 13 -21 2 -30 -1 -27
-10z"/>
<path d="M2615 2640 c4 -6 11 -8 16 -5 14 9 11 15 -7 15 -8 0 -12 -5 -9 -10z"/>
<path d="M2822 2628 c2 -6 10 -14 16 -16 7 -2 10 2 6 12 -7 18 -28 22 -22 4z"/>
<path d="M5371 2514 c-85 -275 -106 -359 -100 -397 4 -28 2 -40 -9 -46 -12 -7
-13 -14 -3 -41 8 -25 8 -36 -1 -47 -8 -10 -8 -17 0 -25 20 -20 25 -6 36 95 3
27 8 52 10 55 2 4 7 29 10 56 4 27 13 76 21 110 8 34 16 72 18 86 3 14 17 74
31 134 15 60 24 111 22 114 -3 2 -18 -40 -35 -94z"/>
<path d="M2870 2590 c0 -5 5 -10 11 -10 5 0 7 5 4 10 -3 6 -8 10 -11 10 -2 0
-4 -4 -4 -10z"/>
<path d="M2801 2562 c-6 -2 -11 -15 -11 -28 0 -20 5 -24 30 -24 23 0 30 4 30
20 0 11 5 20 10 20 6 0 10 5 10 10 0 10 -42 11 -69 2z"/>
<path d="M3796 2475 c-16 -24 -16 -25 8 -25 31 0 38 10 21 33 -12 16 -14 16
-29 -8z"/>
<path d="M3775 2480 c3 -5 8 -10 11 -10 2 0 4 5 4 10 0 6 -5 10 -11 10 -5 0
-7 -4 -4 -10z"/>
<path d="M318 2463 c7 -3 16 -2 19 1 4 3 -2 6 -13 5 -11 0 -14 -3 -6 -6z"/>
<path d="M3733 2462 c-24 -4 -32 -32 -10 -32 18 0 52 26 41 31 -5 3 -19 3 -31
1z"/>
<path d="M425 2320 c-3 -5 -1 -10 4 -10 6 0 11 5 11 10 0 6 -2 10 -4 10 -3 0
-8 -4 -11 -10z"/>
<path d="M490 2310 c0 -5 5 -10 10 -10 6 0 10 5 10 10 0 6 -4 10 -10 10 -5 0
-10 -4 -10 -10z"/>
<path d="M2530 2301 c0 -6 5 -13 10 -16 6 -3 10 1 10 9 0 9 -4 16 -10 16 -5 0
-10 -4 -10 -9z"/>
<path d="M2489 2088 c-1 -2 -2 -47 -3 -100 -1 -74 1 -98 11 -98 8 0 13 13 13
33 0 30 15 67 22 57 2 -3 17 -24 32 -47 16 -24 35 -43 42 -43 20 0 18 7 -22
62 l-35 50 23 26 c13 14 29 32 36 40 7 8 11 17 8 19 -11 11 -43 -10 -71 -48
l-30 -41 -3 46 c-2 25 -7 46 -13 46 -5 0 -9 -1 -10 -2z"/>
<path d="M2669 2077 c-65 -50 -46 -176 28 -190 90 -17 148 99 87 172 -20 24
-34 31 -62 31 -21 0 -44 -6 -53 -13z m90 -33 c25 -32 27 -64 6 -104 -20 -38
-66 -42 -89 -8 -23 32 -20 90 4 116 28 29 54 28 79 -4z"/>
<path d="M2840 1990 c0 -82 3 -100 15 -100 11 0 15 11 15 39 0 22 4 42 8 45
16 10 49 -23 55 -54 4 -18 13 -30 22 -30 18 0 15 21 -10 71 -10 22 -10 28 4
36 20 13 16 62 -7 79 -9 7 -36 14 -59 14 l-43 0 0 -100z m67 74 c44 -12 33
-59 -16 -69 -18 -3 -21 1 -21 36 0 41 2 42 37 33z"/>
<path d="M2999 2083 c-1 -11 -1 -165 0 -180 1 -9 19 -13 56 -13 64 0 75 17 13
22 -40 3 -42 5 -43 36 -1 31 1 32 38 32 26 0 37 4 34 13 -2 6 -15 12 -28 12
-33 0 -48 12 -44 33 2 9 4 20 4 23 1 4 16 6 34 5 55 -2 46 19 -10 22 -29 2
-53 -1 -54 -5z"/>
<path d="M3161 1998 c-36 -107 -36 -108 -17 -108 8 0 17 14 21 30 6 26 11 30
41 30 30 0 37 -4 45 -30 6 -16 18 -30 26 -30 8 0 13 6 10 13 -2 6 -17 51 -33
100 -38 117 -51 116 -93 -5z m64 5 c6 -28 4 -33 -13 -33 -27 0 -30 6 -18 45
12 39 21 35 31 -12z"/>
<path d="M3320 1990 c0 -77 3 -100 14 -100 10 0 13 17 12 70 -1 39 0 70 3 70
5 -1 17 -18 78 -117 7 -13 20 -23 28 -23 12 0 15 18 15 100 0 79 -3 100 -14
100 -11 0 -14 -16 -13 -75 1 -41 2 -75 1 -75 0 0 -22 34 -48 75 -66 103 -76
100 -76 -25z"/>
<path d="M3596 2003 c-16 -49 -31 -94 -33 -100 -3 -7 2 -13 10 -13 8 0 20 14
26 30 8 26 15 30 45 30 30 0 35 -4 41 -30 4 -16 13 -30 21 -30 19 0 19 1 -17
107 -41 123 -55 124 -93 6z m64 -5 c8 -25 7 -28 -16 -28 -27 0 -30 15 -12 56
7 16 14 21 16 13 2 -8 7 -26 12 -41z"/>
<path d="M3759 2088 c0 -2 -2 -39 -5 -83 -2 -44 -6 -88 -8 -98 -3 -13 1 -17
12 -15 9 2 18 13 18 26 1 12 2 46 3 75 l2 52 27 -77 c14 -43 31 -78 38 -78 7
0 22 30 34 68 26 78 36 93 36 55 2 -104 4 -123 19 -123 13 0 14 13 9 88 -3 48
-7 93 -7 100 0 6 -8 12 -18 12 -12 0 -25 -21 -45 -76 l-28 -76 -25 73 c-17 49
-32 75 -43 77 -10 2 -18 2 -19 0z"/>
<path d="M3989 2088 c-1 -2 -2 -47 -3 -100 l-2 -98 58 0 c63 0 82 19 21 21
-21 1 -41 1 -45 0 -5 0 -8 15 -8 34 0 34 1 35 40 35 28 0 40 4 40 14 0 10 -11
14 -37 12 -35 -1 -38 1 -41 29 -3 28 -1 30 30 29 41 0 59 5 52 17 -4 8 -102
14 -105 7z"/>
<path d="M4130 1990 c0 -84 2 -100 16 -100 9 0 14 8 13 18 -1 9 -1 29 0 44 2
40 40 25 59 -24 18 -45 46 -54 36 -10 -4 15 -12 37 -20 49 -11 18 -11 22 1 27
9 3 15 19 15 41 0 40 -23 55 -86 55 l-34 0 0 -100z m84 65 c19 -19 10 -44 -18
-55 -40 -14 -48 0 -30 58 5 17 29 15 48 -3z"/>
<path d="M4289 2068 c-1 -23 0 -156 0 -170 1 -5 7 -8 14 -8 10 0 12 23 11 93
-2 110 -2 107 -14 107 -5 0 -10 -10 -11 -22z"/>
<path d="M4393 2078 c-45 -22 -63 -116 -30 -156 19 -23 69 -41 100 -35 38 7
36 31 -3 25 -60 -9 -100 46 -78 109 10 29 50 51 85 47 12 -2 23 2 25 7 4 14
-72 16 -99 3z"/>
<path d="M4575 2078 c-3 -7 -16 -44 -29 -83 -13 -38 -27 -78 -31 -87 -5 -13
-2 -18 9 -18 10 0 22 13 27 30 9 25 16 30 44 30 28 0 35 -5 44 -30 5 -16 16
-30 24 -30 15 0 8 33 -36 155 -14 40 -43 58 -52 33z m44 -100 c1 -5 -10 -8
-24 -8 -28 0 -30 4 -13 51 l11 33 13 -34 c7 -19 13 -38 13 -42z"/>
<path d="M4709 2088 c-1 -2 -2 -47 -3 -100 -1 -82 1 -98 14 -98 12 0 15 14 13
77 l-1 78 24 -40 c14 -22 34 -57 46 -77 12 -21 29 -38 38 -38 14 0 16 13 14
93 -2 111 -2 107 -14 107 -6 0 -10 -32 -10 -77 l0 -77 -33 55 c-56 92 -61 99
-74 99 -7 0 -14 -1 -14 -2z"/>
<path d="M5190 1980 c0 -5 7 -10 15 -10 8 0 15 5 15 10 0 6 -7 10 -15 10 -8 0
-15 -4 -15 -10z"/>
<path d="M5238 1918 c-19 -36 -18 -48 6 -48 18 0 22 6 23 35 1 40 -11 45 -29
13z"/>
<path d="M5298 1903 c7 -3 16 -2 19 1 4 3 -2 6 -13 5 -11 0 -14 -3 -6 -6z"/>
<path d="M5213 1845 c0 -8 4 -15 8 -15 4 0 9 7 13 15 3 9 0 15 -8 15 -7 0 -13
-7 -13 -15z"/>
<path d="M5130 1806 c0 -8 4 -17 9 -20 5 -3 7 -20 6 -38 -4 -39 4 -56 16 -37
12 19 11 66 -1 90 -12 22 -30 25 -30 5z"/>
<path d="M5120 1754 c0 -8 5 -12 10 -9 6 4 8 11 5 16 -9 14 -15 11 -15 -7z"/>
<path d="M2148 1728 c-38 -31 -24 -75 31 -98 16 -6 32 -18 35 -26 8 -20 -23
-45 -53 -42 -14 2 -27 -1 -29 -7 -5 -15 39 -23 68 -13 60 21 60 78 0 108 -21
11 -40 26 -43 34 -8 21 15 36 46 30 20 -3 27 0 27 11 0 19 -59 21 -82 3z"/>
<path d="M2295 1715 c-24 -23 -27 -33 -27 -70 0 -45 5 -59 30 -85 24 -24 33
-27 67 -21 115 18 104 201 -11 201 -24 0 -43 -8 -59 -25z m95 -13 c47 -38 21
-142 -35 -142 -56 0 -82 104 -35 142 28 23 42 23 70 0z"/>
<path d="M2515 1728 c-59 -34 -65 -138 -10 -174 26 -17 112 -16 107 1 -2 6
-11 9 -20 8 -42 -6 -74 9 -88 42 -25 60 14 119 76 113 14 -2 27 2 30 7 7 14
-71 17 -95 3z"/>
<path d="M2649 1676 c-2 -133 -2 -136 14 -136 18 0 17 192 -1 198 -9 3 -12
-15 -13 -62z"/>
<path d="M2719 1736 c-1 0 -2 -45 -3 -98 l-2 -98 58 0 c40 0 58 4 58 13 0 8
-13 12 -40 10 -22 -1 -40 2 -40 7 0 4 -3 15 -6 23 -8 23 21 45 52 39 20 -4 25
-1 22 9 -3 8 -13 14 -24 15 -45 2 -50 5 -50 27 0 28 10 35 46 32 17 -1 31 3
34 11 4 11 -7 14 -49 13 -30 -1 -56 -2 -56 -3z"/>
<path d="M2846 1732 c-13 -13 -4 -19 24 -17 34 3 33 7 31 -102 -2 -60 1 -73
14 -73 12 0 15 15 15 85 0 87 0 88 43 88 9 0 17 6 17 13 0 10 -18 13 -69 13
-38 -1 -72 -3 -75 -7z"/>
<path d="M3031 1678 c21 -41 31 -76 31 -100 -1 -28 2 -38 13 -38 11 0 15 12
15 43 0 28 10 58 30 92 33 56 36 65 17 65 -6 0 -23 -20 -36 -45 l-24 -45 -22
43 c-13 23 -30 44 -40 45 -13 3 -10 -9 16 -60z"/>
<path d="M3261 1720 c-43 -37 -44 -126 -2 -164 30 -28 88 -23 120 8 21 22 26
36 26 77 0 43 -4 54 -28 75 -34 29 -83 31 -116 4z m94 -25 c32 -31 32 -75 1
-112 -21 -24 -27 -26 -52 -18 -38 14 -54 47 -43 93 14 63 54 78 94 37z"/>
<path d="M3440 1639 c0 -81 3 -99 15 -99 11 0 15 12 15 46 0 44 1 46 24 42 32
-6 57 8 38 20 -7 5 -24 7 -38 4 -22 -4 -24 -1 -24 30 0 33 1 35 37 34 20 -1
38 4 40 10 2 6 -17 11 -52 12 l-55 1 0 -100z"/>
<path d="M3642 1638 c0 -77 3 -98 14 -98 10 0 14 13 14 44 0 43 1 44 35 48 48
5 56 -2 57 -50 0 -29 5 -42 14 -42 15 0 15 2 16 95 0 96 -1 105 -14 105 -8 0
-14 -15 -15 -36 -1 -20 -3 -38 -5 -39 -5 -5 -31 -7 -60 -6 -26 1 -28 4 -28 39
0 26 -4 39 -14 39 -11 0 -14 -22 -14 -99z"/>
<path d="M3854 1717 c-23 -20 -28 -32 -28 -76 -1 -47 2 -56 31 -81 27 -25 36
-27 67 -20 48 10 64 25 75 66 12 44 -3 98 -32 119 -32 22 -81 19 -113 -8z m96
-17 c42 -42 20 -140 -30 -140 -33 0 -66 36 -68 74 -2 27 4 42 22 61 30 30 50
31 76 5z"/>
<path d="M4035 1659 c0 -75 3 -83 27 -104 18 -16 34 -21 57 -17 43 6 61 37 63
103 1 86 -1 101 -14 97 -8 -3 -13 -30 -14 -77 -2 -73 -14 -101 -43 -101 -41 1
-47 17 -50 148 -1 19 -6 32 -14 32 -9 0 -12 -22 -12 -81z"/>
<path d="M4238 1729 c-38 -22 -10 -99 35 -99 25 0 39 -33 23 -55 -10 -14 -21
-17 -44 -12 -37 8 -51 -6 -19 -20 36 -15 80 -1 95 29 17 36 3 63 -43 83 -24 9
-35 21 -35 34 0 21 5 24 45 25 11 1 22 6 25 11 7 14 -61 17 -82 4z"/>
<path d="M4350 1724 c0 -10 8 -13 24 -10 29 5 32 -4 31 -101 0 -52 3 -73 12
-73 13 0 17 45 14 133 -1 37 2 40 42 40 9 0 17 5 17 13 0 9 -19 13 -70 13 -55
0 -70 -3 -70 -15z"/>
<path d="M4533 1725 c-26 -18 -46 -83 -37 -119 13 -55 81 -85 131 -58 55 30
64 128 17 170 -29 26 -79 29 -111 7z m86 -22 c28 -24 33 -75 10 -113 -21 -35
-47 -38 -80 -11 -32 26 -32 96 1 123 28 23 42 23 69 1z"/>
<path d="M4709 1738 c-1 -2 -2 -47 -3 -100 -1 -73 2 -98 11 -98 13 0 16 25 13
110 l-1 45 48 -77 c66 -107 79 -104 78 19 0 67 -4 98 -13 101 -9 3 -12 -17
-12 -74 l0 -78 -33 55 c-56 92 -61 99 -74 99 -7 0 -14 -1 -14 -2z"/>
<path d="M5116 1715 c-3 -9 0 -15 9 -15 9 0 12 6 9 15 -4 8 -7 15 -9 15 -2 0
-5 -7 -9 -15z"/>
<path d="M5176 1703 c-3 -8 2 -13 14 -13 11 0 20 6 20 13 0 8 -7 14 -15 14 -8
0 -16 -6 -19 -14z"/>
<path d="M5140 1660 c0 -5 7 -10 15 -10 8 0 15 5 15 10 0 6 -7 10 -15 10 -8 0
-15 -4 -15 -10z"/>
<path d="M5110 1586 c0 -42 4 -66 11 -66 8 0 9 13 5 39 -3 22 -2 42 3 45 12 8
7 39 -7 44 -8 2 -12 -17 -12 -62z"/>
<path d="M5237 1643 c-11 -10 -8 -43 3 -43 6 0 10 11 10 25 0 26 -2 29 -13 18z"/>
<path d="M5176 1615 c-3 -8 -1 -15 4 -15 6 0 10 7 10 15 0 8 -2 15 -4 15 -2 0
-6 -7 -10 -15z"/>
<path d="M5198 1605 c-4 -17 -1 -25 8 -25 8 0 14 11 14 25 0 14 -4 25 -9 25
-5 0 -11 -11 -13 -25z"/>
<path d="M5195 1530 c-3 -5 1 -10 9 -10 9 0 16 5 16 10 0 6 -4 10 -9 10 -6 0
-13 -4 -16 -10z"/>
<path d="M5190 1486 c0 -10 9 -16 25 -16 14 0 25 5 25 10 0 6 -4 10 -9 10 -5
0 -16 3 -25 6 -11 4 -16 1 -16 -10z"/>
<path d="M5106 1415 c-7 -20 4 -75 15 -75 11 0 9 79 -2 85 -4 3 -10 -2 -13
-10z"/>
<path d="M5198 1403 c7 -3 16 -2 19 1 4 3 -2 6 -13 5 -11 0 -14 -3 -6 -6z"/>
<path d="M5035 1321 c0 -36 13 -51 25 -31 16 26 12 60 -7 60 -13 0 -18 -8 -18
-29z"/>
</g>
</svg>
